<svg xmlns="http://www.w3.org/2000/svg" width="1057.5" height="536"><defs><marker id="a" stroke-dasharray="0,0" markerHeight="12" markerUnits="userSpaceOnUse" markerWidth="16" orient="auto" refX="16" refY="6" viewBox="0 0 16 12"><path fill="#323232" stroke="#323232" stroke-width="2" d="m0 2 14 4-14 5V2"/></marker><marker id="b" stroke-dasharray="0,0" markerHeight="12" markerUnits="userSpaceOnUse" markerWidth="16" orient="auto" refX="16" refY="6" viewBox="0 0 16 12"><path fill="#323232" stroke="#323232" stroke-width="2" d="m0 2 14 4-14 5V2"/></marker><marker id="c" stroke-dasharray="0,0" markerHeight="12" markerUnits="userSpaceOnUse" markerWidth="16" orient="auto" refX="16" refY="6" viewBox="0 0 16 12"><path fill="#323232" stroke="#323232" stroke-width="2" d="m0 2 14 4-14 5V2"/></marker><marker id="d" stroke-dasharray="0,0" markerHeight="12" markerUnits="userSpaceOnUse" markerWidth="16" orient="auto" refX="16" refY="6" viewBox="0 0 16 12"><path fill="#323232" stroke="#323232" stroke-width="2" d="m0 2 14 4-14 5V2"/></marker><marker id="e" stroke-dasharray="0,0" markerHeight="12" markerUnits="userSpaceOnUse" markerWidth="16" orient="auto" refX="16" refY="6" viewBox="0 0 16 12"><path fill="#323232" stroke="#323232" stroke-width="2" d="m0 2 14 4-14 5V2"/></marker></defs><path fill="#fff" stroke="rgba(50,50,50,1)" stroke-width="2" d="M470 29q0-4 4-4h92q4 0 4 4v62q0 4-4 4h-92q-4 0-4-4Z"/><text y="25.375" fill="#323232" font-family="微软雅黑" font-size="13" font-weight="400" text-anchor="middle" transform="translate(470 25)"><tspan x="50" dy="16"><tspan>RlListPipes</tspan></tspan></text><path fill="#fff" stroke="rgba(50,50,50,1)" stroke-width="2" d="M832.5 344q0-4 4-4h109q4 0 4 4v62q0 4-4 4h-109q-4 0-4-4Z"/><text y="25.375" fill="#323232" font-family="微软雅黑" font-size="13" font-weight="400" text-anchor="middle" transform="translate(832.5 340)"><tspan x="58.5" dy="16"><tspan>RlListPipeFilter</tspan></tspan></text><path fill="#fff" stroke="rgba(50,50,50,1)" stroke-width="2" d="M25 344q0-4 4-4h126q4 0 4 4v62q0 4-4 4H29q-4 0-4-4Z"/><text y="25.375" fill="#323232" font-family="微软雅黑" font-size="13" font-weight="400" text-anchor="middle" transform="translate(25 340)"><tspan x="67" dy="16"><tspan>RlListPipeFormat</tspan></tspan></text><path fill="#fff" stroke="rgba(50,50,50,1)" stroke-width="2" d="M277 344q0-4 4-4h145q4 0 4 4v62q0 4-4 4H281q-4 0-4-4Z"/><text y="25.375" fill="#323232" font-family="微软雅黑" font-size="13" font-weight="400" text-anchor="middle" transform="translate(277 340)"><tspan x="76.5" dy="16"><tspan>RlListPipePagination</tspan></tspan></text><path fill="#fff" stroke="rgba(50,50,50,1)" stroke-width="2" d="M611 344q0-4 4-4h152q4 0 4 4v62q0 4-4 4H615q-4 0-4-4Z"/><text y="25.375" fill="#323232" font-family="微软雅黑" font-size="13" font-weight="400" text-anchor="middle" transform="translate(611 340)"><tspan x="80" dy="16"><tspan>RlListPipePlaceholder</tspan></tspan></text><path fill="none" stroke="#323232" stroke-width="2" marker-end="url(#a)" d="M92 340V145.5h428V95"/><path fill="#fff" d="M248 137.5h116v16H248z"/><text y="135.875" fill="#323232" font-family="微软雅黑" font-size="13" font-weight="400" text-anchor="middle"><tspan x="306" dy="16"><tspan>enablePipeFormat</tspan></tspan></text><path fill="none" stroke="#323232" stroke-width="2" marker-end="url(#b)" d="M891 340V217.5H520V95"/><path fill="#fff" d="M654.5 209.5h102v16h-102z"/><text y="207.875" fill="#323232" font-family="微软雅黑" font-size="13" font-weight="400" text-anchor="middle"><tspan x="705.5" dy="16"><tspan>enablePipeFilter</tspan></tspan></text><path fill="none" stroke="#323232" stroke-width="2" marker-end="url(#c)" d="M691 340v-72.5H520V95"/><path fill="#fff" d="M533 259.5h145v16H533z"/><text y="257.875" fill="#323232" font-family="微软雅黑" font-size="13" font-weight="400" text-anchor="middle"><tspan x="605.5" dy="16"><tspan>enablePipePlaceholder</tspan></tspan></text><path fill="none" stroke="#323232" stroke-width="2" marker-end="url(#d)" d="M353.5 340V184.5H520V95"/><path fill="#fff" d="M368.25 176.5h137v16h-137z"/><text y="174.875" fill="#323232" font-family="微软雅黑" font-size="13" font-weight="400" text-anchor="middle"><tspan x="436.75" dy="16"><tspan>enablePipePagination</tspan></tspan></text><path fill="none" d="M832.5 415h200v52h-200Z"/><text y=".375" fill="#323232" font-family="微软雅黑" font-size="13" font-weight="400" transform="translate(832.5 415)"><tspan x="0" dy="16"><tspan>this.$scopedSlots.default({</tspan></tspan><tspan x="0" dy="16"><tspan>     filteredList: this.filteredList</tspan></tspan><tspan x="0" dy="16"><tspan>})</tspan></tspan></text><path fill="none" d="M277 415h238v96H277Z"/><text y="-1.625" fill="#323232" font-family="微软雅黑" font-size="13" font-weight="400" transform="translate(277 415)"><tspan x="0" dy="16"><tspan>this.$scopedSlots.default({</tspan></tspan><tspan x="0" dy="16"><tspan>     total: this.total,</tspan></tspan><tspan x="0" dy="16"><tspan>     page: this.page,</tspan></tspan><tspan x="0" dy="16"><tspan>     pageSize: this.pageSize,</tspan></tspan><tspan x="0" dy="16"><tspan>     paginatedList: this.paginatedList</tspan></tspan><tspan x="0" dy="16"><tspan>})</tspan></tspan></text><path fill="none" d="M25 415h240v68H25Z"/><text y=".375" fill="#323232" font-family="微软雅黑" font-size="13" font-weight="400" transform="translate(25 415)"><tspan x="0" dy="16"><tspan>this.$scopedSlots.default({</tspan></tspan><tspan x="0" dy="16"><tspan>     formattedList: this.formattedList,</tspan></tspan><tspan x="0" dy="16"><tspan>     formatApi: this.formatApi</tspan></tspan><tspan x="0" dy="16"><tspan>})</tspan></tspan></text><path fill="none" d="M611.5 415h191v55h-191Z"/><text y="1.875" fill="#323232" font-family="微软雅黑" font-size="13" font-weight="400" transform="translate(611.5 415)"><tspan x="0" dy="16"><tspan>this.$scopedSlots.default({</tspan></tspan><tspan x="0" dy="16"><tspan>     placedList: this.placedList</tspan></tspan><tspan x="0" dy="16"><tspan>})</tspan></tspan></text><path fill="none" d="M460 355h120v40H460Z"/><text y="10.375" fill="#323232" font-family="微软雅黑" font-size="13" font-weight="400" text-anchor="middle" transform="translate(460 355)"><tspan x="60" dy="16"><tspan>••••••</tspan></tspan></text><path fill="none" stroke="#323232" stroke-width="2" marker-end="url(#e)" d="M520 355V95"/></svg>