<svg xmlns="http://www.w3.org/2000/svg" width="1236.297" height="120.063"><defs><marker id="a" stroke-dasharray="0,0" markerHeight="12" markerUnits="userSpaceOnUse" markerWidth="16" orient="auto" refX="16" refY="6" viewBox="0 0 16 12"><path fill="#323232" stroke="#323232" stroke-width="2" d="m0 2 14 4-14 5V2"/></marker><marker id="b" stroke-dasharray="0,0" markerHeight="12" markerUnits="userSpaceOnUse" markerWidth="16" orient="auto" refX="16" refY="6" viewBox="0 0 16 12"><path fill="#323232" stroke="#323232" stroke-width="2" d="m0 2 14 4-14 5V2"/></marker><marker id="c" stroke-dasharray="0,0" markerHeight="12" markerUnits="userSpaceOnUse" markerWidth="16" orient="auto" refX="16" refY="6" viewBox="0 0 16 12"><path fill="#323232" stroke="#323232" stroke-width="2" d="m0 2 14 4-14 5V2"/></marker><marker id="d" stroke-dasharray="0,0" markerHeight="12" markerUnits="userSpaceOnUse" markerWidth="16" orient="auto" refX="16" refY="6" viewBox="0 0 16 12"><path fill="#323232" stroke="#323232" stroke-width="2" d="m0 2 14 4-14 5V2"/></marker></defs><path fill="#fff" stroke="rgba(50,50,50,1)" stroke-width="2" d="M25 29q0-4 4-4h140q4 0 4 4v62q0 4-4 4H29q-4 0-4-4Z"/><text y="17.375" fill="#323232" font-family="微软雅黑" font-size="13" font-weight="400" text-anchor="middle" transform="translate(25 25)"><tspan x="74" dy="16"><tspan>执行 yarn commit </tspan></tspan><tspan x="74" dy="16"><tspan>(git add . &amp;&amp; git-cz)</tspan></tspan></text><path fill="#fff" stroke="rgba(50,50,50,1)" stroke-width="2" d="M256 29.074q0-4 4-4h148q4 0 4 4v62q0 4-4 4H260q-4 0-4-4Z"/><text y="17.375" fill="#323232" font-family="微软雅黑" font-size="13" font-weight="400" text-anchor="middle" transform="translate(256 25.074)"><tspan x="78" dy="16"><tspan>启动 commitizen 生成 </tspan></tspan><tspan x="78" dy="16"><tspan>commit-message</tspan></tspan></text><path fill="#fff" stroke="rgba(50,50,50,1)" stroke-width="2" d="M526 29q0-4 4-4h182q4 0 4 4v62q0 4-4 4H530q-4 0-4-4Z"/><text y="17.375" fill="#323232" font-family="微软雅黑" font-size="13" font-weight="400" text-anchor="middle" transform="translate(526 25)"><tspan x="95" dy="16"><tspan>执行 lint-staged 对暂存区的</tspan></tspan><tspan x="95" dy="16"><tspan>文件进行校验、修复和格式化</tspan></tspan></text><path fill="#fff" stroke="rgba(50,50,50,1)" stroke-width="2" d="M836 29.074q0-4 4-4h180q4 0 4 4v62q0 4-4 4H840q-4 0-4-4Z"/><text y="17.375" fill="#323232" font-family="微软雅黑" font-size="13" font-weight="400" text-anchor="middle" transform="translate(836 25.074)"><tspan x="94" dy="16"><tspan>执行 commitlint 对 </tspan></tspan><tspan x="94" dy="16"><tspan>commit-message 进行校验</tspan></tspan></text><path fill="#fff" stroke="rgba(50,50,50,1)" stroke-width="2" d="M1111.299 29.074q0-4 4-4h92q4 0 4 4v62q0 4-4 4h-92q-4 0-4-4Z"/><text y="25.375" fill="#323232" font-family="微软雅黑" font-size="13" font-weight="400" text-anchor="middle" transform="translate(1111.299 25.074)"><tspan x="50" dy="16"><tspan>生成 commit</tspan></tspan></text><path fill="none" stroke="#323232" stroke-width="2" marker-end="url(#a)" d="M173 60h41.5v.074H256"/><path fill="none" stroke="#323232" stroke-width="2" marker-end="url(#b)" d="M412 60.074h57V60h57"/><path fill="#fff" d="M432 52.037h74v16h-74z"/><text y="50.412" fill="#323232" font-family="微软雅黑" font-size="13" font-weight="400" text-anchor="middle"><tspan x="469" dy="16"><tspan>pre-commit</tspan></tspan></text><path fill="none" stroke="#323232" stroke-width="2" marker-end="url(#c)" d="M716 60h60v.074h60"/><path fill="#fff" d="M736 52.037h80v16h-80z"/><text y="50.412" fill="#323232" font-family="微软雅黑" font-size="13" font-weight="400" text-anchor="middle"><tspan x="776" dy="16"><tspan>commit-msg</tspan></tspan></text><path fill="none" stroke="#323232" stroke-width="2" marker-end="url(#d)" d="M1024 60.074h87.299"/></svg>