<svg xmlns="http://www.w3.org/2000/svg" width="774" height="420"><defs><marker id="a" stroke-dasharray="0,0" markerHeight="10" markerUnits="userSpaceOnUse" markerWidth="14" orient="auto" refX="10" refY="5" viewBox="0 0 14 10"><path fill="#323232" stroke="#323232" d="m0 0 14 5-14 5V0"/></marker><marker id="b" stroke-dasharray="0,0" markerHeight="10" markerUnits="userSpaceOnUse" markerWidth="14" orient="auto" refX="10" refY="5" viewBox="0 0 14 10"><path fill="#323232" stroke="#323232" d="m0 0 14 5-14 5V0"/></marker><marker id="c" stroke-dasharray="0,0" markerHeight="10" markerUnits="userSpaceOnUse" markerWidth="14" orient="auto" refX="10" refY="5" viewBox="0 0 14 10"><path fill="#323232" stroke="#323232" d="m0 0 14 5-14 5V0"/></marker><marker id="d" stroke-dasharray="0,0" markerHeight="10" markerUnits="userSpaceOnUse" markerWidth="14" orient="auto" refX="10" refY="5" viewBox="0 0 14 10"><path fill="#323232" stroke="#323232" d="m0 0 14 5-14 5V0"/></marker><marker id="e" stroke-dasharray="0,0" markerHeight="10" markerUnits="userSpaceOnUse" markerWidth="14" orient="auto" refX="10" refY="5" viewBox="0 0 14 10"><path fill="#323232" stroke="#323232" d="m0 0 14 5-14 5V0"/></marker><marker id="f" stroke-dasharray="0,0" markerHeight="10" markerUnits="userSpaceOnUse" markerWidth="14" orient="auto" refX="10" refY="5" viewBox="0 0 14 10"><path fill="#323232" stroke="#323232" d="m0 0 14 5-14 5V0"/></marker></defs><path fill="none" d="M29 232.5h720v40H29Z"/><text y="2" fill="#323232" font-family="微软雅黑" font-size="20" font-weight="400" text-anchor="middle" transform="translate(29 232.5)"><tspan x="360" dy="25"><tspan>*carousel=&quot;let item from images autoplay &apos;on&apos; withDelay 2000&quot;</tspan></tspan></text><path fill="none" stroke="#323232" stroke-width="2" marker-end="url(#a)" d="M147 335.5v-59.9"/><path fill="none" stroke="#323232" stroke-width="2" marker-end="url(#b)" d="M150.25 188v22H254v19.4"/><path fill="none" stroke="#323232" stroke-width="2" marker-end="url(#c)" d="M398.5 110v61H365v58.4"/><path fill="none" stroke="#323232" stroke-width="2" marker-end="url(#d)" d="M287.5 334v-30.5H301v-27.9"/><path fill="none" d="M100 336.5h94v57h-94Z"/><text y="17.875" fill="#323232" font-family="微软雅黑" font-size="13" font-weight="400" text-anchor="middle" transform="translate(100 336.5)"><tspan x="47" dy="16"><tspan>指令名称</tspan></tspan></text><path fill="none" d="M25 106h250.5v81H25Z"/><text y="13.375" fill="#323232" font-family="微软雅黑" font-size="13" font-weight="400" text-anchor="middle" transform="translate(25 106)"><tspan x="125.5" dy="16"><tspan>声明模版变量</tspan></tspan><tspan x="125.5" dy="16"><tspan>默认从上下文的 $implicit 属性上取值</tspan></tspan><tspan x="125.5" dy="16"><tspan>let item = $implicit</tspan></tspan></text><path fill="none" d="M222 335h131v60H222Z"/><text y="19.375" fill="#323232" font-family="微软雅黑" font-size="13" font-weight="400" text-anchor="middle" transform="translate(222 335)"><tspan x="65.5" dy="16"><tspan>绑定 key，名称随意</tspan></tspan></text><path fill="none" d="M198 25h401v84H198Z"/><text y="14.875" fill="#323232" font-family="微软雅黑" font-size="13" font-weight="400" text-anchor="middle" transform="translate(198 25)"><tspan x="200.5" dy="16"><tspan>传入指令的值</tspan></tspan><tspan x="200.5" dy="16"><tspan>@Input(&apos;carouselFrom&apos;) images: string[]</tspan></tspan><tspan x="200.5" dy="16"><tspan style="--darkreader-inline-color:#c8c4bd;fill:#323232">carouselFrom 不是随便起的，它是由“指令名称”和“绑定 key”决定的</tspan></tspan></text><path fill="none" d="M412.5 337h278v58h-278Z"/><text y="18.375" fill="#323232" font-family="微软雅黑" font-size="13" font-weight="400" text-anchor="middle" transform="translate(412.5 337)"><tspan x="139" dy="16"><tspan>@Input(carouselAutoplay) autoplay: &apos;on&apos; | &apos;off&apos;</tspan></tspan></text><path fill="none" stroke="#323232" stroke-width="2" marker-end="url(#e)" d="M551.5 336v-31.5H445v-28.9"/><path fill="none" d="M473 116.5h265v60H473Z"/><text y="19.375" fill="#323232" font-family="微软雅黑" font-size="13" font-weight="400" text-anchor="middle" transform="translate(473 116.5)"><tspan x="132.5" dy="16"><tspan>@Input(carouselWithDelay) delay: number</tspan></tspan></text><path fill="none" stroke="#323232" stroke-width="2" marker-end="url(#f)" d="M605.5 177.5v27.25H569v24.65"/></svg>